<svg width="138" height="41" viewBox="0 0 138 41" fill="none" xmlns="http://www.w3.org/2000/svg">
<path d="M9.70825 36.6667L12.4166 24.9583L3.33325 17.0833L15.3333 16.0417L19.9999 5L24.6666 16.0417L36.6666 17.0833L27.5833 24.9583L30.2916 36.6667L19.9999 30.4583L9.70825 36.6667Z" fill="#FFC700"/>
<path d="M58.7083 37.6667L61.4166 25.9583L52.3333 18.0833L64.3333 17.0417L68.9999 6L73.6666 17.0417L85.6666 18.0833L76.5833 25.9583L79.2916 37.6667L68.9999 31.4583L58.7083 37.6667Z" fill="#FFC700"/>
<path d="M107.708 36.6667L110.417 24.9583L101.333 17.0833L113.333 16.0417L118 5L122.667 16.0417L134.667 17.0833L125.583 24.9583L128.292 36.6667L118 30.4583L107.708 36.6667Z" fill="#FFC700"/>
</svg>
